              <svg xmlns="http://www.w3.org/2000/svg" version="1.1" xmlns:xlink="http://www.w3.org/1999/xlink"
                width="60" height="60" x="0" y="0" viewBox="0 0 682.667 682.665"
                style="enable-background:new 0 0 512 512" xml:space="preserve" class="">
                <g>
                  <defs>
                    <clipPath id="a" clipPathUnits="userSpaceOnUse">
                      <path d="M0 511.999h512V0H0Z" fill="#D98324" opacity="1" data-original="#000000"></path>
                    </clipPath>
                  </defs>
                  <g clip-path="url(#a)" transform="matrix(1.33333 0 0 -1.33333 0 682.665)">
                    <path
                      d="M0 0c23.44 23.44 43.915 43.915 56.84 56.842 51.137 51.137 51.737 133.671 1.797 185.545-20.262 21.046-45.875 33.66-72.711 38.057"
                      style="stroke-width:15;stroke-linecap:round;stroke-linejoin:round;stroke-miterlimit:10;stroke-dasharray:none;stroke-opacity:1"
                      transform="translate(408.853 172.935)" fill="none" stroke="#D98324" stroke-width="15"
                      stroke-linecap="round" stroke-linejoin="round" stroke-miterlimit="10" stroke-dasharray="none"
                      stroke-opacity="" data-original="#000000" opacity="1"></path>
                    <path
                      d="M0 0c-30.517-2.969-60.334-16.219-83.575-39.461l-9.679-9.255c-5.888-5.629-15.163-5.63-21.051 0l-9.683 9.258c-52.79 52.789-139.506 54.06-191.283.277-49.939-51.874-49.337-134.408 1.798-185.544l139.536-139.537c3.515-3.514 9.305.3 7.481 4.924-13.621 34.538-17.435 75.804-4.386 124.748a76.668 76.668 0 0 1 2.035 10.708l.695 5.861a11.608 11.608 0 0 1-3.996 10.178c-21.844 18.718-19.053 59.127 4.788 68.663 15.383 6.154 25.189-6.812 30.542-18.041 1.894-3.972 7.374-4.285 9.737-.57 6.716 10.562 23.104 25.468 63.014 37.524 41.509 12.54 55.518 34.589 60.052 50.412 1.471 5.13 8.622 5.432 10.473.426 6.56-17.74 12.063-45.817-3.327-72.422-3.571-6.173-4.417-13.553-2.572-20.444 2.951-11.021 9.151-27.064 21.802-39.31 3.578-3.465 2.334-9.507-2.307-11.314-5.44-2.117-12.459-4.312-19.636-5.092-3.958-.428-7.152-3.422-7.673-7.37-.72-5.449-1.435-13.068-.915-19.282a3.347 3.347 0 0 0-2.831-3.582l-5.806-.902c-2.381-.371-3.611-3.052-2.337-5.098l2.181-3.506a3.348 3.348 0 0 0-.196-3.833c-1.796-2.301-4.976-6.868-8.157-13.844-5.157-11.308-18.909-15.97-29.655-9.723-17.888 10.397-42.379 17.439-65.107-.239-24.059-18.712-9.86-67.88 33.444-107.481 7.015-6.416 17.902-6.421 24.644.282l.122.122 86.151 86.15"
                      style="stroke-width:15;stroke-linecap:round;stroke-linejoin:round;stroke-miterlimit:10;stroke-dasharray:none;stroke-opacity:1"
                      transform="translate(359.78 454.501)" fill="none" stroke="#D98324" stroke-width="15"
                      stroke-linecap="round" stroke-linejoin="round" stroke-miterlimit="10" stroke-dasharray="none"
                      stroke-opacity="" data-original="#000000" opacity="1"></path>
                  </g>
                </g>
              </svg>
