<svg width="28" height="27" viewBox="0 0 28 27" fill="none" xmlns="http://www.w3.org/2000/svg">
<path d="M14.0832 0.476074C6.63279 0.476074 0.599609 6.32621 0.599609 13.5344C0.599609 20.7426 6.63279 26.5928 14.0832 26.5928C21.547 26.5928 27.5937 20.7426 27.5937 13.5344C27.5937 6.32621 21.547 0.476074 14.0832 0.476074ZM14.0967 23.9811C8.13096 23.9811 3.29902 19.3062 3.29902 13.5344C3.29902 7.76263 8.13096 3.08774 14.0967 3.08774C20.0623 3.08774 24.8943 7.76263 24.8943 13.5344C24.8943 19.3062 20.0623 23.9811 14.0967 23.9811ZM14.7715 7.00524H12.7469V14.8402L19.8329 18.9536L20.8452 17.3475L14.7715 13.8609V7.00524Z" fill="url(#paint0_linear_49_41)"/>
<defs>
<linearGradient id="paint0_linear_49_41" x1="-5.49363" y1="10.3068" x2="38.6471" y2="15.5839" gradientUnits="userSpaceOnUse">
<stop stop-color="#D98324"/>
<stop offset="1" stop-color="#D98324"/>
</linearGradient>
</defs>
</svg>
